<mxfile host="app.diagrams.net" agent="Mozilla/5.0 (X11; Ubuntu; Linux x86_64; rv:132.0) Gecko/20100101 Firefox/132.0" version="26.0.9">
  <diagram name="Page-1" id="KLLp8n_x6j3FGlEfXZYh">
    <mxGraphModel dx="1364" dy="795" grid="1" gridSize="10" guides="1" tooltips="1" connect="1" arrows="1" fold="1" page="1" pageScale="1" pageWidth="850" pageHeight="1100" math="0" shadow="0">
      <root>
        <mxCell id="0" />
        <mxCell id="1" parent="0" />
        <mxCell id="wc9Bcwz-jxeCsXZz8JzP-3" value="" style="edgeStyle=orthogonalEdgeStyle;rounded=0;orthogonalLoop=1;jettySize=auto;html=1;" edge="1" parent="1" source="wc9Bcwz-jxeCsXZz8JzP-1" target="wc9Bcwz-jxeCsXZz8JzP-2">
          <mxGeometry relative="1" as="geometry" />
        </mxCell>
        <mxCell id="wc9Bcwz-jxeCsXZz8JzP-11" value="" style="edgeStyle=orthogonalEdgeStyle;rounded=0;orthogonalLoop=1;jettySize=auto;html=1;" edge="1" parent="1" source="wc9Bcwz-jxeCsXZz8JzP-1" target="wc9Bcwz-jxeCsXZz8JzP-2">
          <mxGeometry relative="1" as="geometry" />
        </mxCell>
        <mxCell id="wc9Bcwz-jxeCsXZz8JzP-1" value="start" style="ellipse;whiteSpace=wrap;html=1;" vertex="1" parent="1">
          <mxGeometry x="360" width="120" height="80" as="geometry" />
        </mxCell>
        <mxCell id="wc9Bcwz-jxeCsXZz8JzP-13" value="" style="edgeStyle=orthogonalEdgeStyle;rounded=0;orthogonalLoop=1;jettySize=auto;html=1;" edge="1" parent="1" source="wc9Bcwz-jxeCsXZz8JzP-2" target="wc9Bcwz-jxeCsXZz8JzP-12">
          <mxGeometry relative="1" as="geometry" />
        </mxCell>
        <mxCell id="wc9Bcwz-jxeCsXZz8JzP-2" value="read n" style="shape=parallelogram;perimeter=parallelogramPerimeter;whiteSpace=wrap;html=1;fixedSize=1;" vertex="1" parent="1">
          <mxGeometry x="360" y="170" width="120" height="60" as="geometry" />
        </mxCell>
        <mxCell id="wc9Bcwz-jxeCsXZz8JzP-15" value="" style="edgeStyle=orthogonalEdgeStyle;rounded=0;orthogonalLoop=1;jettySize=auto;html=1;" edge="1" parent="1" source="wc9Bcwz-jxeCsXZz8JzP-12" target="wc9Bcwz-jxeCsXZz8JzP-14">
          <mxGeometry relative="1" as="geometry" />
        </mxCell>
        <mxCell id="wc9Bcwz-jxeCsXZz8JzP-12" value="count = 1" style="whiteSpace=wrap;html=1;" vertex="1" parent="1">
          <mxGeometry x="360" y="310" width="120" height="60" as="geometry" />
        </mxCell>
        <mxCell id="wc9Bcwz-jxeCsXZz8JzP-17" value="" style="edgeStyle=orthogonalEdgeStyle;rounded=0;orthogonalLoop=1;jettySize=auto;html=1;" edge="1" parent="1" source="wc9Bcwz-jxeCsXZz8JzP-14" target="wc9Bcwz-jxeCsXZz8JzP-16">
          <mxGeometry relative="1" as="geometry" />
        </mxCell>
        <mxCell id="wc9Bcwz-jxeCsXZz8JzP-14" value="sum = 0" style="whiteSpace=wrap;html=1;" vertex="1" parent="1">
          <mxGeometry x="360" y="450" width="120" height="60" as="geometry" />
        </mxCell>
        <mxCell id="wc9Bcwz-jxeCsXZz8JzP-19" value="" style="edgeStyle=orthogonalEdgeStyle;rounded=0;orthogonalLoop=1;jettySize=auto;html=1;" edge="1" parent="1" source="wc9Bcwz-jxeCsXZz8JzP-16" target="wc9Bcwz-jxeCsXZz8JzP-18">
          <mxGeometry relative="1" as="geometry" />
        </mxCell>
        <mxCell id="wc9Bcwz-jxeCsXZz8JzP-26" value="FALSE" style="edgeLabel;html=1;align=center;verticalAlign=middle;resizable=0;points=[];" vertex="1" connectable="0" parent="wc9Bcwz-jxeCsXZz8JzP-19">
          <mxGeometry x="0.1143" y="-3" relative="1" as="geometry">
            <mxPoint as="offset" />
          </mxGeometry>
        </mxCell>
        <mxCell id="wc9Bcwz-jxeCsXZz8JzP-21" value="" style="edgeStyle=orthogonalEdgeStyle;rounded=0;orthogonalLoop=1;jettySize=auto;html=1;" edge="1" parent="1" source="wc9Bcwz-jxeCsXZz8JzP-16" target="wc9Bcwz-jxeCsXZz8JzP-20">
          <mxGeometry relative="1" as="geometry" />
        </mxCell>
        <mxCell id="wc9Bcwz-jxeCsXZz8JzP-27" value="TRUE" style="edgeLabel;html=1;align=center;verticalAlign=middle;resizable=0;points=[];" vertex="1" connectable="0" parent="wc9Bcwz-jxeCsXZz8JzP-21">
          <mxGeometry x="-0.3232" y="-1" relative="1" as="geometry">
            <mxPoint as="offset" />
          </mxGeometry>
        </mxCell>
        <mxCell id="wc9Bcwz-jxeCsXZz8JzP-16" value="if n &amp;gt; 0" style="rhombus;whiteSpace=wrap;html=1;" vertex="1" parent="1">
          <mxGeometry x="380" y="580" width="80" height="80" as="geometry" />
        </mxCell>
        <mxCell id="wc9Bcwz-jxeCsXZz8JzP-33" value="" style="edgeStyle=orthogonalEdgeStyle;rounded=0;orthogonalLoop=1;jettySize=auto;html=1;" edge="1" parent="1" source="wc9Bcwz-jxeCsXZz8JzP-18" target="wc9Bcwz-jxeCsXZz8JzP-32">
          <mxGeometry relative="1" as="geometry" />
        </mxCell>
        <mxCell id="wc9Bcwz-jxeCsXZz8JzP-18" value="write &quot;ERROR: number less then zero&quot;" style="shape=parallelogram;perimeter=parallelogramPerimeter;whiteSpace=wrap;html=1;fixedSize=1;" vertex="1" parent="1">
          <mxGeometry x="200" y="590" width="120" height="60" as="geometry" />
        </mxCell>
        <mxCell id="wc9Bcwz-jxeCsXZz8JzP-23" value="" style="edgeStyle=orthogonalEdgeStyle;rounded=0;orthogonalLoop=1;jettySize=auto;html=1;" edge="1" parent="1" source="wc9Bcwz-jxeCsXZz8JzP-20" target="wc9Bcwz-jxeCsXZz8JzP-22">
          <mxGeometry relative="1" as="geometry" />
        </mxCell>
        <mxCell id="wc9Bcwz-jxeCsXZz8JzP-36" value="TRUE" style="edgeLabel;html=1;align=center;verticalAlign=middle;resizable=0;points=[];" vertex="1" connectable="0" parent="wc9Bcwz-jxeCsXZz8JzP-23">
          <mxGeometry x="-0.2" relative="1" as="geometry">
            <mxPoint as="offset" />
          </mxGeometry>
        </mxCell>
        <mxCell id="wc9Bcwz-jxeCsXZz8JzP-31" value="" style="edgeStyle=orthogonalEdgeStyle;rounded=0;orthogonalLoop=1;jettySize=auto;html=1;" edge="1" parent="1" source="wc9Bcwz-jxeCsXZz8JzP-20" target="wc9Bcwz-jxeCsXZz8JzP-30">
          <mxGeometry relative="1" as="geometry" />
        </mxCell>
        <mxCell id="wc9Bcwz-jxeCsXZz8JzP-35" value="FALSE" style="edgeLabel;html=1;align=center;verticalAlign=middle;resizable=0;points=[];" vertex="1" connectable="0" parent="wc9Bcwz-jxeCsXZz8JzP-31">
          <mxGeometry x="-0.2333" y="1" relative="1" as="geometry">
            <mxPoint as="offset" />
          </mxGeometry>
        </mxCell>
        <mxCell id="wc9Bcwz-jxeCsXZz8JzP-20" value="count &amp;lt;= n" style="rhombus;whiteSpace=wrap;html=1;" vertex="1" parent="1">
          <mxGeometry x="540" y="698" width="80" height="80" as="geometry" />
        </mxCell>
        <mxCell id="wc9Bcwz-jxeCsXZz8JzP-25" value="" style="edgeStyle=orthogonalEdgeStyle;rounded=0;orthogonalLoop=1;jettySize=auto;html=1;" edge="1" parent="1" source="wc9Bcwz-jxeCsXZz8JzP-22" target="wc9Bcwz-jxeCsXZz8JzP-24">
          <mxGeometry relative="1" as="geometry" />
        </mxCell>
        <mxCell id="wc9Bcwz-jxeCsXZz8JzP-22" value="sum = sum + (count * count)" style="whiteSpace=wrap;html=1;" vertex="1" parent="1">
          <mxGeometry x="520" y="858" width="120" height="60" as="geometry" />
        </mxCell>
        <mxCell id="wc9Bcwz-jxeCsXZz8JzP-29" style="edgeStyle=orthogonalEdgeStyle;rounded=0;orthogonalLoop=1;jettySize=auto;html=1;exitX=1;exitY=0.5;exitDx=0;exitDy=0;entryX=1;entryY=0.5;entryDx=0;entryDy=0;" edge="1" parent="1" source="wc9Bcwz-jxeCsXZz8JzP-24" target="wc9Bcwz-jxeCsXZz8JzP-20">
          <mxGeometry relative="1" as="geometry" />
        </mxCell>
        <mxCell id="wc9Bcwz-jxeCsXZz8JzP-24" value="count += 1" style="whiteSpace=wrap;html=1;" vertex="1" parent="1">
          <mxGeometry x="520" y="998" width="120" height="60" as="geometry" />
        </mxCell>
        <mxCell id="wc9Bcwz-jxeCsXZz8JzP-34" style="edgeStyle=orthogonalEdgeStyle;rounded=0;orthogonalLoop=1;jettySize=auto;html=1;exitX=0;exitY=0.5;exitDx=0;exitDy=0;entryX=1;entryY=0.5;entryDx=0;entryDy=0;" edge="1" parent="1" source="wc9Bcwz-jxeCsXZz8JzP-30" target="wc9Bcwz-jxeCsXZz8JzP-32">
          <mxGeometry relative="1" as="geometry" />
        </mxCell>
        <mxCell id="wc9Bcwz-jxeCsXZz8JzP-30" value="write sum" style="whiteSpace=wrap;html=1;" vertex="1" parent="1">
          <mxGeometry x="360" y="708" width="120" height="60" as="geometry" />
        </mxCell>
        <mxCell id="wc9Bcwz-jxeCsXZz8JzP-32" value="end" style="ellipse;whiteSpace=wrap;html=1;" vertex="1" parent="1">
          <mxGeometry x="220" y="698" width="80" height="80" as="geometry" />
        </mxCell>
      </root>
    </mxGraphModel>
  </diagram>
</mxfile>
